<svg width="1920" height="1080" viewBox="0 0 1920 1080" fill="none" xmlns="http://www.w3.org/2000/svg">
  <defs>
    <linearGradient id="examGradient" x1="0%" y1="0%" x2="100%" y2="100%">
      <stop offset="0%" style="stop-color:#4facfe;stop-opacity:1" />
      <stop offset="100%" style="stop-color:#00f2fe;stop-opacity:1" />
    </linearGradient>
    <pattern id="examPattern" x="0" y="0" width="60" height="60" patternUnits="userSpaceOnUse">
      <circle cx="30" cy="30" r="1" fill="rgba(255,255,255,0.1)"/>
      <circle cx="15" cy="15" r="0.5" fill="rgba(255,255,255,0.08)"/>
      <circle cx="45" cy="45" r="0.5" fill="rgba(255,255,255,0.08)"/>
    </pattern>
  </defs>
  
  <!-- Background -->
  <rect width="1920" height="1080" fill="url(#examGradient)"/>
  <rect width="1920" height="1080" fill="url(#examPattern)"/>
  
  <!-- Focus elements -->
  <circle cx="200" cy="200" r="80" fill="rgba(255,255,255,0.04)" opacity="0.8"/>
  <circle cx="1720" cy="880" r="120" fill="rgba(255,255,255,0.03)" opacity="0.6"/>
  
  <!-- Question mark and exam elements -->
  <circle cx="1650" cy="200" r="50" fill="rgba(255,255,255,0.05)" opacity="0.7"/>
  <path d="M1635 185 Q1635 175 1645 175 Q1655 175 1655 185 Q1655 195 1645 200 L1645 210 M1645 220 L1645 225" stroke="rgba(255,255,255,0.1)" stroke-width="3" fill="none"/>
  
  <!-- Subtle geometric elements -->
  <rect x="150" y="850" width="60" height="60" rx="6" fill="rgba(255,255,255,0.04)" transform="rotate(10 180 880)"/>
  <polygon points="1750,150 1770,180 1730,180" fill="rgba(255,255,255,0.05)" opacity="0.6"/>
  
  <!-- Clock element for time awareness -->
  <circle cx="100" cy="100" r="30" fill="rgba(255,255,255,0.06)" opacity="0.8"/>
  <line x1="100" y1="100" x2="100" y2="85" stroke="rgba(255,255,255,0.1)" stroke-width="2"/>
  <line x1="100" y1="100" x2="110" y2="100" stroke="rgba(255,255,255,0.08)" stroke-width="1.5"/>
</svg>